<svg width="141" height="24" viewBox="0 0 141 24" fill="none" xmlns="http://www.w3.org/2000/svg">
<path d="M8.84879 18.7875C6.96312 18.7875 5.35425 18.4069 4.02218 17.6457C2.7074 16.8672 1.70402 15.7773 1.01203 14.376C0.337344 12.9748 0 11.3399 0 9.47157C0 7.56861 0.345994 5.90784 1.03798 4.48927C1.74727 3.07069 2.7593 1.97216 4.07407 1.19368C5.38885 0.397893 6.97177 0 8.82284 0C10.2241 0 11.4783 0.242195 12.5855 0.726586C13.6927 1.19368 14.5836 1.89431 15.2583 2.8285C15.9503 3.74538 16.3828 4.87851 16.5558 6.22788C16.7288 7.57726 13.1997 7.07557 12.9748 6.22788C12.7499 5.3802 12.2914 4.71416 11.5994 4.22977C10.9247 3.72808 10.0252 3.47724 8.90069 3.47724C7.65511 3.47724 6.66038 3.76268 5.91649 4.33357C5.1899 4.88716 4.66226 5.61375 4.33357 6.51333C4.00488 7.39561 3.84053 8.32979 3.84053 9.31588C3.84053 10.3366 4.01353 11.3053 4.35952 12.2222C4.70551 13.1391 5.25045 13.883 5.99434 14.4539C6.75553 15.0248 7.75026 15.3102 8.97853 15.3102C9.70512 15.3102 10.3539 15.2064 10.9247 14.9988C11.4956 14.7739 11.9627 14.4539 12.326 14.0387C12.7066 13.6235 12.9661 13.1305 13.1045 12.5596C13.2429 11.9887 16.971 11.2275 16.8153 12.5596C16.6596 13.8916 16.2098 15.0248 15.4659 15.959C14.722 16.8931 13.7792 17.6024 12.6374 18.0868C11.4956 18.5539 10.2328 18.7875 8.84879 18.7875Z" fill="#333E51"/>
<path d="M25.6606 18.7615C24.2767 18.7615 23.0657 18.4847 22.0277 17.9311C20.9897 17.3602 20.1853 16.5558 19.6144 15.5178C19.0435 14.4625 18.7581 13.217 18.7581 11.7811C18.7581 10.3106 19.0435 9.04773 19.6144 7.99245C20.2026 6.91987 21.0157 6.09814 22.0536 5.52725C23.0916 4.95636 24.2853 4.67091 25.6347 4.67091C27.0187 4.67091 28.221 4.96501 29.2417 5.5532C30.2623 6.14139 31.0581 6.96312 31.629 8.0184C32.1999 9.07368 32.4854 10.3366 32.4854 11.807C32.4854 13.2429 32.1999 14.4885 31.629 15.5438C31.0754 16.5817 30.2883 17.3775 29.2676 17.9311C28.2642 18.4847 27.0619 18.7615 25.6606 18.7615ZM25.6087 15.44C26.4045 15.44 27.0446 15.267 27.529 14.921C28.0134 14.575 28.3594 14.1252 28.567 13.5716C28.7919 13.0007 28.9043 12.4039 28.9043 11.7811C28.9043 11.1583 28.7919 10.5615 28.567 9.99056C28.3594 9.41967 28.0134 8.95258 27.529 8.58929C27.0619 8.2087 26.4218 8.0184 25.6087 8.0184C24.8302 8.0184 24.1988 8.2087 23.7144 8.58929C23.23 8.95258 22.8754 9.41967 22.6505 9.99056C22.4429 10.5615 22.3391 11.1583 22.3391 11.7811C22.3391 12.4212 22.4429 13.018 22.6505 13.5716C22.8754 14.1252 23.23 14.575 23.7144 14.921C24.1988 15.267 24.8302 15.44 25.6087 15.44Z" fill="#333E51"/>
<path d="M35.0708 18.5799V0.207597H38.7037V18.5799H35.0708Z" fill="#333E51"/>
<path d="M48.2266 18.7615C46.8426 18.7615 45.6316 18.4847 44.5936 17.9311C43.5557 17.3602 42.7512 16.5558 42.1803 15.5178C41.6094 14.4625 41.324 13.217 41.324 11.7811C41.324 10.3106 41.6094 9.04773 42.1803 7.99245C42.7685 6.91987 43.5816 6.09814 44.6196 5.52725C45.6576 4.95636 46.8512 4.67091 48.2006 4.67091C49.5846 4.67091 50.7869 4.96501 51.8076 5.5532C52.8283 6.14139 53.6241 6.96312 54.195 8.0184C54.7659 9.07368 55.0513 10.3366 55.0513 11.807C55.0513 13.2429 54.7659 14.4885 54.195 15.5438C53.6414 16.5817 52.8542 17.3775 51.8336 17.9311C50.8302 18.4847 49.6278 18.7615 48.2266 18.7615ZM48.1747 15.44C48.9705 15.44 49.6105 15.267 50.0949 14.921C50.5793 14.575 50.9253 14.1252 51.1329 13.5716C51.3578 13.0007 51.4703 12.4039 51.4703 11.7811C51.4703 11.1583 51.3578 10.5615 51.1329 9.99056C50.9253 9.41967 50.5793 8.95258 50.0949 8.58929C49.6278 8.2087 48.9878 8.0184 48.1747 8.0184C47.3962 8.0184 46.7648 8.2087 46.2804 8.58929C45.796 8.95258 45.4413 9.41967 45.2164 9.99056C45.0088 10.5615 44.905 11.1583 44.905 11.7811C44.905 12.4212 45.0088 13.018 45.2164 13.5716C45.4413 14.1252 45.796 14.575 46.2804 14.921C46.7648 15.267 47.3962 15.44 48.1747 15.44Z" fill="#333E51"/>
<path d="M57.6367 18.5799V4.90446H60.9064L61.1399 6.53928C61.4859 6.02029 61.8751 5.63105 62.3076 5.37155C62.7401 5.09475 63.1899 4.91311 63.657 4.82661C64.1241 4.72281 64.5998 4.67091 65.0842 4.67091C65.3091 4.67091 65.5167 4.67956 65.707 4.69686C65.8973 4.69686 66.1222 4.69686 66.1222 4.69686C66.1222 4.69686 67.4512 7.87519 66.1222 8.20005C65.7974 8.27946 65.2659 8.20005 65.2659 8.20005C64.4528 8.20005 63.7435 8.33844 63.138 8.61524C62.5325 8.89203 62.0654 9.32453 61.7367 9.91272C61.4254 10.5009 61.2697 11.2534 61.2697 12.1703V18.5799H57.6367Z" fill="#333E51"/>
<path d="M75.5309 18.7875C74.2508 18.7875 73.0571 18.5885 71.9499 18.1906C70.86 17.7927 69.9431 17.1613 69.1993 16.2963C68.4727 15.4313 68.0142 14.3155 67.8239 12.9488C67.6336 11.5821 71.4569 12.3606 71.6126 12.9488C71.7683 13.537 72.0537 14.0127 72.4689 14.376C72.8841 14.722 73.3771 14.9729 73.948 15.1286C74.5362 15.2843 75.1503 15.3621 75.7904 15.3621C76.2748 15.3621 76.7506 15.3016 77.2177 15.1805C77.6848 15.0594 78.0653 14.8518 78.3594 14.5577C78.6708 14.2636 78.8265 13.8657 78.8265 13.364C78.8265 12.9834 78.74 12.672 78.567 12.4298C78.4113 12.1876 78.1778 11.9973 77.8664 11.8589C77.5723 11.7032 77.209 11.5648 76.7765 11.4437C76.4132 11.3399 76.0326 11.2534 75.6347 11.1842C75.2541 11.115 74.8736 11.0285 74.493 10.9247C74.1297 10.8209 73.775 10.6999 73.429 10.5615C72.7716 10.3885 72.1402 10.1809 71.5347 9.93866C70.9292 9.67917 70.3929 9.35913 69.9258 8.97853C69.4588 8.58064 69.0868 8.0876 68.81 7.49941C68.5505 6.91122 68.4208 6.20193 68.4208 5.37155C68.4208 4.47197 68.5678 3.71078 68.8619 3.08799C69.1733 2.4652 69.5799 1.95486 70.0815 1.55697C70.6005 1.14178 71.1714 0.821735 71.7942 0.596839C72.4343 0.371943 73.0744 0.216246 73.7145 0.129747C74.3546 0.0432492 74.9601 0 75.5309 0C76.7246 0 77.7972 0.207596 78.7487 0.622788C79.7002 1.03798 80.4786 1.66077 81.0841 2.49115C81.6896 3.32154 82.0356 4.36817 82.1221 5.63105C82.2086 6.89392 78.5843 6.15004 78.5151 5.63105C78.4459 5.11205 78.2556 4.68821 77.9442 4.35952C77.6329 4.03082 77.235 3.78863 76.7506 3.63293C76.2835 3.47723 75.7558 3.39939 75.1676 3.39939C74.7871 3.39939 74.4151 3.43399 74.0518 3.50318C73.6885 3.57238 73.3598 3.68483 73.0657 3.84053C72.7889 3.97893 72.564 4.16922 72.3911 4.41142C72.2354 4.65361 72.1575 4.94771 72.1575 5.2937C72.1575 5.63969 72.2527 5.94244 72.4429 6.20193C72.6332 6.44413 72.91 6.66038 73.2733 6.85067C73.6539 7.02367 74.0951 7.18802 74.5968 7.34371C75.1157 7.51671 75.6607 7.65511 76.2316 7.75891C76.8025 7.8627 77.3474 8.0011 77.8664 8.1741C78.5238 8.34709 79.1379 8.55469 79.7088 8.79689C80.2797 9.02178 80.7814 9.31588 81.2139 9.67917C81.6464 10.0252 81.9837 10.475 82.2259 11.0285C82.4681 11.5648 82.5892 12.2309 82.5892 13.0267C82.5892 14.0819 82.3903 14.9815 81.9924 15.7254C81.6118 16.452 81.0841 17.0402 80.4095 17.49C79.7521 17.9398 78.9995 18.2685 78.1518 18.4761C77.3042 18.6837 76.4305 18.7875 75.5309 18.7875Z" fill="#333E51"/>
<path d="M85.4737 23.6919V4.90446H88.873L89.0547 6.61713C89.6083 5.94244 90.2397 5.4494 90.949 5.138C91.6756 4.82661 92.4714 4.67091 93.3364 4.67091C94.6857 4.67091 95.8016 4.98231 96.6839 5.6051C97.5661 6.22788 98.2235 7.07557 98.656 8.14815C99.1058 9.20343 99.3307 10.3885 99.3307 11.7032C99.3307 13.0526 99.0972 14.2636 98.6301 15.3362C98.1803 16.3914 97.4969 17.2305 96.5801 17.8533C95.6632 18.4588 94.5214 18.7615 93.1547 18.7615C92.5665 18.7615 92.0129 18.6923 91.494 18.5539C90.975 18.4155 90.5165 18.2339 90.1186 18.009C89.7207 17.7668 89.3834 17.4986 89.1066 17.2045C89.1066 17.2045 91.3171 22.454 89.1066 23.6919C87.8687 24.3851 85.4737 23.6919 85.4737 23.6919ZM92.5319 15.4919C93.345 15.4919 93.9851 15.3102 94.4522 14.9469C94.9193 14.5836 95.248 14.1252 95.4383 13.5716C95.6286 13.0007 95.7237 12.4125 95.7237 11.807C95.7237 11.1496 95.6199 10.5269 95.4123 9.93866C95.2047 9.35048 94.8587 8.88338 94.3743 8.53739C93.9073 8.1741 93.2672 7.99245 92.4541 7.99245C91.7275 7.99245 91.1134 8.1741 90.6117 8.53739C90.11 8.88338 89.7294 9.34183 89.4699 9.91272C89.2104 10.4836 89.0806 11.0977 89.0806 11.7551C89.0806 12.4125 89.2017 13.0267 89.4439 13.5975C89.7034 14.1684 90.084 14.6269 90.5857 14.9729C91.1047 15.3189 91.7534 15.4919 92.5319 15.4919Z" fill="#333E51"/>
<path d="M106.26 18.7615C105.637 18.7615 105.032 18.6837 104.443 18.528C103.872 18.355 103.362 18.0955 102.912 17.7495C102.463 17.4035 102.108 16.971 101.848 16.452C101.589 15.933 101.459 15.3275 101.459 14.6355C101.459 13.7013 101.649 12.9575 102.03 12.4039C102.411 11.833 102.921 11.4005 103.561 11.1064C104.201 10.8123 104.936 10.6134 105.767 10.5096C106.614 10.4058 107.488 10.3539 108.388 10.3539H110.36C110.36 9.85217 110.265 9.41102 110.074 9.03043C109.901 8.63254 109.633 8.32979 109.27 8.1222C108.907 7.8973 108.44 7.78485 107.869 7.78485C107.505 7.78485 107.151 7.83675 106.805 7.94055C106.476 8.02705 106.199 8.1568 105.974 8.3298C105.749 8.50279 105.602 8.72769 105.533 9.00448C105.464 9.28128 101.745 9.76567 101.848 9.00448C101.952 8.2433 102.194 7.59456 102.575 7.05827C102.956 6.50468 103.431 6.05489 104.002 5.70889C104.573 5.3629 105.196 5.11205 105.871 4.95636C106.563 4.78336 107.272 4.69686 107.998 4.69686C109.988 4.69686 111.458 5.26775 112.41 6.40953C113.361 7.53401 113.837 9.13423 113.837 11.2102V18.5799C113.837 18.5799 111.199 19.6894 110.567 18.5799C110.226 17.9808 110.516 16.8153 110.516 16.8153C110.083 17.4208 109.59 17.8619 109.036 18.1387C108.5 18.4155 107.981 18.5885 107.479 18.6577C106.978 18.7269 106.571 18.7615 106.26 18.7615ZM107.09 15.8811C107.696 15.8811 108.249 15.76 108.751 15.5178C109.253 15.2756 109.651 14.9469 109.945 14.5317C110.239 14.1165 110.386 13.6494 110.386 13.1305V12.7931H107.895C107.531 12.7931 107.177 12.8104 106.831 12.845C106.502 12.8796 106.199 12.9488 105.922 13.0526C105.663 13.1391 105.455 13.2862 105.3 13.4937C105.144 13.7013 105.066 13.9781 105.066 14.3241C105.066 14.6701 105.153 14.9642 105.326 15.2064C105.516 15.4313 105.767 15.6043 106.078 15.7254C106.39 15.8292 106.727 15.8811 107.09 15.8811Z" fill="#333E51"/>
<path d="M116.934 18.5799V4.90446H120.204L120.438 6.53928C120.784 6.02029 121.173 5.63105 121.605 5.37155C122.038 5.09475 122.488 4.91311 122.955 4.82661C123.422 4.72281 123.898 4.67091 124.382 4.67091C124.607 4.67091 124.814 4.67956 125.005 4.69686C125.195 4.69686 125.333 4.69686 125.42 4.69686C125.506 4.69686 126.749 7.8752 125.42 8.20005C125.095 8.27945 124.564 8.20005 124.564 8.20005C123.75 8.20005 123.041 8.33844 122.436 8.61524C121.83 8.89203 121.363 9.32453 121.034 9.91272C120.723 10.5009 120.567 11.2534 120.567 12.1703V18.5799H116.934Z" fill="#333E51"/>
<path d="M127.381 18.5799V0.207597H131.014V10.1463H132.805C132.805 10.1463 134.628 6.92564 136.152 4.90446C137.677 2.88328 140.226 4.90446 140.226 4.90446L135.867 11.4178L140.589 18.5799C140.589 18.5799 136.956 19.4621 136.386 18.5799C135.815 17.6976 132.96 13.39 132.96 13.39H131.014V18.5799H127.381Z" fill="#333E51"/>
</svg>
